<?xml version="1.0" encoding="UTF-8" standalone="no"?>
<!-- Created with Inkscape (http://www.inkscape.org/) -->

<svg
   width="1500"
   height="400"
   viewBox="0 0 396.875 105.83333"
   version="1.1"
   id="svg1"
   inkscape:version="1.3 (0e150ed6c4, 2023-07-21)"
   sodipodi:docname="logo.svg"
   inkscape:export-filename="logo.png"
   inkscape:export-xdpi="96"
   inkscape:export-ydpi="96"
   xmlns:inkscape="http://www.inkscape.org/namespaces/inkscape"
   xmlns:sodipodi="http://sodipodi.sourceforge.net/DTD/sodipodi-0.dtd"
   xmlns="http://www.w3.org/2000/svg"
   xmlns:svg="http://www.w3.org/2000/svg">
  <sodipodi:namedview
     id="namedview1"
     pagecolor="#ffffff"
     bordercolor="#000000"
     borderopacity="0.25"
     inkscape:showpageshadow="2"
     inkscape:pageopacity="0.0"
     inkscape:pagecheckerboard="false"
     inkscape:deskcolor="#d1d1d1"
     inkscape:document-units="px"
     inkscape:lockguides="false"
     labelstyle="default"
     showborder="true"
     shape-rendering="auto"
     inkscape:clip-to-page="false"
     inkscape:zoom="0.57994529"
     inkscape:cx="312.96056"
     inkscape:cy="300.89045"
     inkscape:window-width="1600"
     inkscape:window-height="829"
     inkscape:window-x="-8"
     inkscape:window-y="-8"
     inkscape:window-maximized="1"
     inkscape:current-layer="g2"
     inkscape:export-bgcolor="#ffffff00" />
  <defs
     id="defs1" />
  <g
     inkscape:label="Layer 1"
     inkscape:groupmode="layer"
     id="layer1">
    <g
       id="g3">
      <g
         id="g5">
        <rect
           style="fill:#ffff3f;fill-opacity:1;stroke:#005452;stroke-width:0;stroke-dasharray:none"
           id="rect1"
           width="396.875"
           height="105.83333"
           x="-67.520737"
           y="124.09216" />
        <g
           id="g2"
           transform="matrix(1.0666666,0,0,1.0666666,-0.55261135,-3.5277754)">
          <text
             xml:space="preserve"
             style="font-size:62.9905px;font-family:'Segoe UI';-inkscape-font-specification:'Segoe UI';letter-spacing:4.99769px;fill:#006465;fill-opacity:1;stroke:#006465;stroke-width:3.14953;stroke-dasharray:none;stroke-opacity:1"
             x="109.06422"
             y="73.831482"
             id="text4"><tspan
               sodipodi:role="line"
               id="tspan4"
               style="font-style:normal;font-variant:normal;font-weight:normal;font-stretch:normal;font-family:'Codec Pro';-inkscape-font-specification:'Codec Pro';letter-spacing:4.99769px;fill:#006465;fill-opacity:1;stroke:#006465;stroke-width:3.14953;stroke-dasharray:none;stroke-opacity:1"
               x="109.06422"
               y="73.831482">BINARY</tspan></text>
          <g
             id="g1"
             transform="translate(-1.8248875)">
            <g
               id="g4"
               style="fill:#006465;fill-opacity:1">
              <path
                 id="path1-1"
                 style="fill:#006465;fill-opacity:1;stroke-width:0.246826"
                 d="M 54.741412 13.229165 A 39.6875 39.6875 0 0 0 48.875975 13.680688 L 48.875975 27.184709 A 26.458334 26.458334 0 0 1 54.741412 26.458494 A 26.458334 26.458334 0 0 1 81.20007 52.916667 A 26.458334 26.458334 0 0 1 54.741412 79.37484 A 26.458334 26.458334 0 0 1 48.875975 78.648625 L 48.875975 92.152646 A 39.6875 39.6875 0 0 0 54.741412 92.604169 A 39.6875 39.6875 0 0 0 94.428914 52.916667 A 39.6875 39.6875 0 0 0 54.741412 13.229165 z M 34.012541 19.13239 A 39.6875 39.6875 0 0 0 15.05391 52.916667 A 39.6875 39.6875 0 0 0 34.012541 86.700944 L 34.012541 69.264023 A 26.458334 26.458334 0 0 1 28.283239 52.916667 A 26.458334 26.458334 0 0 1 34.012541 36.569311 L 34.012541 19.13239 z " />
              <path
                 id="path1"
                 style="fill:#006465;fill-opacity:1;stroke-width:0.246826"
                 d="m 46.76252,14.140222 a 39.6875,39.6875 0 0 0 -10.63656,3.838009 v 69.876872 a 39.6875,39.6875 0 0 0 10.63656,3.838008 z" />
            </g>
            <text
               xml:space="preserve"
               style="font-size:13.2292px;font-family:'Segoe UI';-inkscape-font-specification:'Segoe UI';fill:#006465;fill-opacity:1;stroke:none;stroke-width:0.246856;stroke-dasharray:none;stroke-opacity:1"
               x="85.666649"
               y="22.014183"
               id="text4-6"><tspan
                 sodipodi:role="line"
                 id="tspan4-3"
                 style="font-style:normal;font-variant:normal;font-weight:normal;font-stretch:normal;font-size:13.2292px;font-family:'Codec Pro';-inkscape-font-specification:'Codec Pro';fill:#006465;fill-opacity:1;stroke-width:0.246856"
                 x="85.666649"
                 y="22.014183">TM</tspan></text>
          </g>
        </g>
      </g>
    </g>
  </g>
</svg>
